
        <svg xmlns="http://www.w3.org/2000/svg" xmlns:xlink="http://www.w3.org/1999/xlink" version="1.1" width="3162.1621621621625" 
        height="972.9704423428112" viewBox="0 0 3162.1621621621625 972.9704423428112">
			
			<g transform="scale(8.108108108108109) translate(10, 10)">
				<defs id="SvgjsDefs1027"></defs><g id="SvgjsG1028" featureKey="4K7G0D-0" transform="matrix(1.1363616659655726,0,0,1.1363616659655726,-6.818081672700235,-6.818169995793436)" fill="#ff325d"><g xmlns="http://www.w3.org/2000/svg" transform="translate(0,-952.36218)"><path style="text-indent:0;text-transform:none;direction:ltr;block-progression:tb;baseline-shift:baseline;color:;enable-background:accumulate;" d="m 13.540789,1013.168 c -4.1612604,0 -7.5408665,3.3922 -7.5408665,7.5693 0,4.1771 3.3796061,7.605 7.5408665,7.605 0.813543,0 1.613976,-0.1361 2.383228,-0.3928 12.281102,18.8997 36.649842,23.2608 54.493227,13.032 0.521221,-0.2991 0.724607,-1.0475 0.426614,-1.571 -0.297992,-0.5234 -1.043503,-0.7275 -1.565078,-0.4284 -16.772953,9.6153 -39.67122,5.6292 -51.327282,-12.1037 1.894251,-1.3812 3.130157,-3.6195 3.130157,-6.1411 0,-4.1771 -3.379252,-7.5693 -7.540866,-7.5693 z" fill="#ff325d" fill-opacity="1" fill-rule="evenodd" stroke="none" marker="none" visibility="visible" display="inline" overflow="visible"></path><path style="text-indent:0;text-transform:none;direction:ltr;block-progression:tb;baseline-shift:baseline;color:;enable-background:accumulate;" d="m 70.417244,970.57299 c -0.951023,0.12132 -1.237323,1.69026 -0.391181,2.14225 13.429842,8.21899 20.928543,24.30182 17.64248,40.55986 -0.392953,-0.067 -0.80185,-0.107 -1.209331,-0.107 -4.161259,0 -7.540866,3.3922 -7.540866,7.5692 0,4.1771 3.379607,7.605 7.540866,7.605 4.16126,0 7.540866,-3.4279 7.540866,-7.605 0,-2.9516 -1.686968,-5.51 -4.161614,-6.748 3.607441,-17.29107 -4.331338,-34.48188 -18.638503,-43.23773 -0.189921,-0.12122 -0.415984,-0.18423 -0.64063,-0.17852 -0.04784,-0.003 -0.09425,-0.003 -0.142087,0 z" fill="#ff325d" fill-opacity="1" fill-rule="evenodd" stroke="none" marker="none" visibility="visible" display="inline" overflow="visible"></path><path style="text-indent:0;text-transform:none;direction:ltr;block-progression:tb;baseline-shift:baseline;color:;enable-background:accumulate;" d="m 50.000001,958.36218 c -4.012441,0 -7.27441,3.16987 -7.505079,7.14083 -17.197086,3.19362 -29.727637,16.85266 -32.5821254,33.06201 a 1.1383515,1.1426463 0 1 0 2.2407874,0.39275 c 2.681221,-15.22486 14.388307,-28.07084 30.518858,-31.1697 0.826653,3.28539 3.802677,5.71266 7.327559,5.71266 4.161259,0 7.540866,-3.39219 7.540866,-7.56928 0,-4.17708 -3.379607,-7.56927 -7.540866,-7.56927 z" fill="#ff325d" fill-opacity="1" fill-rule="evenodd" stroke="none" marker="none" visibility="visible" display="inline" overflow="visible"></path></g></g><g id="SvgjsG1029" featureKey="wPuqcM-0" transform="matrix(2.6612730839126173,0,0,2.6612730839126173,117.60485523967375,-0.43538439429073783)" fill="#ff325d"><path d="M8.16 5.800000000000001 c3.9 0 7.26 2.94 7.26 7.2 s-3.36 7.2 -7.26 7.2 s-7.26 -2.94 -7.26 -7.2 s3.36 -7.2 7.26 -7.2 z M8.16 17.46 c2.36 0 4.22 -1.86 4.22 -4.46 s-1.86 -4.46 -4.22 -4.46 s-4.22 1.86 -4.22 4.46 s1.86 4.46 4.22 4.46 z M23.1 9.42 c2.38 0 5.14 1.78 5.14 5.36 c0 3.7 -2.76 5.42 -5.14 5.42 c-1.8 0 -2.82 -1.06 -2.88 -1.48 l0 5.08 l-2.86 0 l0 -6.12 l0 -8.08 l2.86 0 l0 1.16 c0.06 -0.22 1.08 -1.34 2.88 -1.34 z M22.7 17.66 c1.44 0 2.76 -0.98 2.76 -2.88 c0 -1.84 -1.32 -2.82 -2.76 -2.82 c-1.4 0 -2.62 0.96 -2.62 2.82 c0 1.92 1.22 2.88 2.62 2.88 z M35.1 9.42 c2.36 0 5.62 1.78 5 6.38 l-7.56 0 c0.36 1.3 1.44 1.98 2.84 1.98 c1.3 0 1.8 -0.3 2.54 -0.7 l1.58 1.54 c-0.9 0.94 -2.18 1.58 -4.22 1.58 c-2.6 0 -5.64 -1.78 -5.64 -5.36 c0 -3.64 3.1 -5.42 5.46 -5.42 z M35.1 11.86 c-1.04 0 -2.14 0.64 -2.52 1.92 l5 0 c-0.32 -1.28 -1.46 -1.92 -2.48 -1.92 z M48.1 9.44 c1.98 0 3.94 1.3 3.94 4.58 l0 5.98 l-2.86 0 l0 -5.78 c0 -1.7 -0.66 -2.28 -1.76 -2.28 c-1.52 0 -2.42 1.44 -2.64 2.16 l0 5.9 l-2.86 0 l0 -10.4 l2.86 0 l0 1.92 c0.2 -0.54 1.32 -2.08 3.32 -2.08 z M65.9 18.5 c-1.24 1.12 -2.9 1.7 -4.76 1.7 c-3.92 0 -7.3 -2.94 -7.3 -7.2 s3.38 -7.2 7.3 -7.2 c1.84 0 3.48 0.6 4.68 1.66 l-1.76 1.98 c-0.74 -0.52 -1.74 -0.9 -2.76 -0.9 c-2.52 0 -4.42 1.86 -4.42 4.46 s1.9 4.46 4.42 4.46 c1.06 0 2.1 -0.4 2.86 -1 z M78.82000000000001 20 l-3.1 0 l-2.98 -4.66 l-0.04 0 l-1.98 0 l0 4.66 l-2.92 0 l0 -14 l4.9 0 c3.14 0 5.18 1.9 5.18 4.76 c0 1.9 -0.92 3.32 -2.48 4.04 z M70.72000000000001 8.68 l0 4.14 l1.8 0 c1.44 0 2.44 -0.56 2.44 -2.06 c0 -1.48 -1 -2.08 -2.44 -2.08 l-1.8 0 z M87.58000000000001 5.800000000000001 c3.9 0 7.26 2.94 7.26 7.2 s-3.36 7.2 -7.26 7.2 s-7.26 -2.94 -7.26 -7.2 s3.36 -7.2 7.26 -7.2 z M87.58000000000001 17.46 c2.36 0 4.22 -1.86 4.22 -4.46 s-1.86 -4.46 -4.22 -4.46 s-4.22 1.86 -4.22 4.46 s1.86 4.46 4.22 4.46 z"></path></g><g id="SvgjsG1030" featureKey="Li3fkV-0" transform="matrix(0.8458232925481117,0,0,0.8458232925481117,119.79700300670201,68.36488834070354)" fill="#fcfcfc"><path d="M11.24 5.84 l0 1.2 l-4.84 0 l0 12.96 l-1.32 0 l0 -12.96 l-4.84 0 l0 -1.2 l11 0 z M28.964 5.84 l0 6.24 l7.92 0 l0 -6.24 l1.32 0 l0 14.16 l-1.32 0 l0 -6.72 l-7.92 0 l0 6.72 l-1.32 0 l0 -14.16 l1.32 0 z M64.968 5.84 l0 1.2 l-7.34 0 l0 5.04 l6.88 0 l0 1.2 l-6.88 0 l0 5.52 l7.66 0 l0 1.2 l-8.98 0 l0 -14.16 l8.66 0 z M103.476 15.04 l6.5 0 l-3.2 -7.76 z M107.516 5.84 l5.96 14.16 l-1.48 0 l-1.54 -3.76 l-7.5 0 l-1.6 3.76 l-1.38 0 l6.18 -14.16 l1.36 0 z M131.06 5.84 l0 14.16 l-1.32 0 l0 -14.16 l1.32 0 z M174.98800000000003 5.48 q3.14 0 4.88 2.22 l-1.08 0.9 q-0.6 -0.9 -1.6 -1.41 t-2.2 -0.51 q-2.64 0 -4.3 1.74 t-1.7 4.5 q0 2.74 1.67 4.47 t4.33 1.77 q1.14 0 2.32 -0.57 t1.86 -1.63 l1.08 0.82 q-1.88 2.58 -5.26 2.58 q-3.28 -0.02 -5.27 -2.12 t-2.05 -5.32 q0 -3.26 2.05 -5.33 t5.27 -2.11 z M201.11200000000002 12.08 q1.54 0 2.38 -0.69 t0.84 -1.83 t-0.82 -1.82 t-2.44 -0.7 l-2.86 0 l0 5.04 l2.9 0 z M200.71200000000002 5.84 q4.9 0 4.94 3.72 q0 3.14 -3.62 3.64 l4.12 6.8 l-1.5 0 l-3.98 -6.72 l-2.46 0 l0 6.72 l-1.32 0 l0 -14.16 l3.82 0 z M223.37600000000003 12.92 q0 2.7 1.66 4.45 t4.34 1.79 q2.7 0 4.34 -1.77 t1.66 -4.47 q0 -2.74 -1.64 -4.47 t-4.38 -1.77 q-2.68 0 -4.32 1.76 t-1.66 4.48 z M229.37600000000003 5.48 q2.16 0 3.82 0.95 t2.57 2.66 t0.93 3.83 q0 3.26 -2.06 5.33 t-5.26 2.11 q-3.22 0 -5.24 -2.09 t-2.08 -5.35 q0.02 -3.26 2.04 -5.32 t5.28 -2.12 z"></path></g>
			</g>
		</svg>
	